<?xml version="1.0" encoding="UTF-8" standalone="no"?>
<svg
   width="1200pt"
   height="1200pt"
   version="1.1"
   viewBox="0 0 1200 1200"
   id="svg11"
   sodipodi:docname="logo.svg"
   inkscape:version="1.3.2 (091e20ef0f, 2023-11-25)"
   xmlns:inkscape="http://www.inkscape.org/namespaces/inkscape"
   xmlns:sodipodi="http://sodipodi.sourceforge.net/DTD/sodipodi-0.dtd"
   xmlns="http://www.w3.org/2000/svg"
   xmlns:svg="http://www.w3.org/2000/svg">
  <defs
     id="defs11" />
  <sodipodi:namedview
     id="namedview11"
     pagecolor="#ffffff"
     bordercolor="#666666"
     borderopacity="1.0"
     inkscape:showpageshadow="2"
     inkscape:pageopacity="0.0"
     inkscape:pagecheckerboard="0"
     inkscape:deskcolor="#d1d1d1"
     inkscape:document-units="pt"
     inkscape:zoom="0.509375"
     inkscape:cx="800"
     inkscape:cy="800"
     inkscape:window-width="1920"
     inkscape:window-height="1019"
     inkscape:window-x="0"
     inkscape:window-y="30"
     inkscape:window-maximized="1"
     inkscape:current-layer="svg11" />
  <path
     id="path1"
     d="M 546.87109 67.578125 C 444.23265 71.967976 342.98657 111.13568 265.4659 178.80413 C 203.66527 234.7544 167.7205 316.6597 163.62901 399.50744 C 162.61498 418.11453 163.48726 436.75888 165.10951 455.30364 C 167.22454 486.59483 169.23002 518.65077 161.09874 549.30689 C 152.63797 581.19067 134.00539 609.30758 112.55567 633.94938 C 103.6185 644.41249 92.856566 654.49102 89.540199 668.37027 C 86.438905 680.33441 89.258058 693.52999 96.832652 703.27802 C 103.62231 712.68392 113.7033 718.88211 123.67147 724.40297 C 145.74636 740.41983 159.42216 765.99113 164.54968 792.42849 C 173.38835 831.87274 171.63493 873.23297 184.3457 911.88477 C 191.42774 934.71187 211.29277 952.77939 234.48827 958.25273 C 248.06659 961.81803 262.35215 961.07448 276.04589 958.62573 C 315.71334 955.14207 355.86065 950.19315 395.54555 956.18017 C 416.72798 959.54893 436.28948 973.97944 444.11159 994.19978 C 454.29284 1016.6322 457.41589 1041.3071 464.04235 1064.851 C 469.26564 1085.8551 475.0168 1107.2378 486.71492 1125.6916 C 494.48588 1134.1925 507.03544 1135.9822 517.91382 1134.1851 C 595.59478 1131.7696 673.324 1133.8531 751.01829 1132.3219 C 789.84028 1131.6742 828.73377 1130.5551 867.36655 1126.6207 C 880.20133 1121.3381 885.09105 1103.5772 877.63672 1092.1055 C 863.52302 1045.1577 862.52791 995.79311 857.56055 947.37695 C 857.09676 941.71992 857.16065 935.53118 853.66406 930.73633 C 839.19446 927.67407 824.31084 929.59183 809.68482 928.1873 C 787.87772 927.65678 766.0685 927.22026 744.25977 926.76367 C 743.00309 894.27483 749.64576 862.2579 753.59766 830.16992 C 743.03588 827.47796 732.09526 829.82424 721.37582 828.91566 C 699.26412 829.15499 677.16189 829.8801 655.06055 830.5625 C 652.55902 799.97453 648.11783 769.59458 643.92773 739.20508 C 610.94084 738.19313 577.93303 738.70205 544.93945 738.11133 C 543.325 707.58312 548.39054 677.26962 549.76102 646.8357 C 549.99259 645.4996 549.64512 643.10233 551.70991 643.78973 C 583.75192 643.76151 615.79393 643.73329 647.83594 643.70508 C 646.86328 611.35482 645.89062 579.00456 644.91797 546.6543 C 678.41446 546.89086 711.91057 547.17934 745.40625 547.51172 C 750.25 516.69206 755.09375 485.8724 759.9375 455.05273 C 795.70768 453.70768 831.47786 452.36263 867.24805 451.01758 C 866.38346 417.44466 865.51888 383.87174 864.6543 350.29883 C 829.50716 350.57422 794.36003 350.84961 759.21289 351.125 C 756.28906 319.09245 753.36523 287.0599 750.44141 255.02734 C 714.39974 255.52344 678.35807 256.01953 642.31641 256.51562 C 643.46549 225.30599 644.61458 194.09635 645.76367 162.88672 C 682.50781 163.16927 719.25195 163.45182 755.99609 163.73438 C 754.58333 140.95182 753.17057 118.16927 751.75781 95.386719 C 684.58974 79.63421 616.10254 67.214356 546.87109 67.578125 z M 784.06641 158.05078 C 782.11458 188.42643 780.16276 218.80208 778.21094 249.17773 C 813.81315 247.87109 849.41536 246.56445 885.01758 245.25781 C 890.11719 213.43099 895.2168 181.60417 900.31641 149.77734 C 861.56641 152.53516 822.81641 155.29297 784.06641 158.05078 z M 916.86133 216.45508 C 912.60547 249.95443 908.34961 283.45378 904.09375 316.95312 C 937.41341 316.29492 970.73307 315.63672 1004.0527 314.97852 C 1006.2474 281.70508 1008.4421 248.43164 1010.6367 215.1582 C 979.37826 215.59049 948.11979 216.02279 916.86133 216.45508 z M 453.65039 257.76562 C 455.70898 288.96029 457.76758 320.15495 459.82617 351.34961 C 426.00065 351.82878 392.17513 352.30794 358.34961 352.78711 C 358.0944 321.11328 357.83919 289.43945 357.58398 257.76562 C 389.60612 257.76563 421.62826 257.76562 453.65039 257.76562 z M 662.42773 390.56055 C 628.94792 390.06966 595.4681 389.57878 561.98828 389.08789 C 558.44206 357.48242 554.89583 325.87695 551.34961 294.27148 C 584.90039 293.60286 618.45117 292.93424 652.00195 292.26562 C 655.47721 325.0306 658.95247 357.79557 662.42773 390.56055 z M 1060.7324 416.61328 C 1099.7617 421.10026 1138.791 425.58724 1177.8203 430.07422 C 1175.8223 391.45117 1173.8242 352.82813 1171.8262 314.20508 C 1133.7995 314.15169 1095.7728 314.09831 1057.7461 314.04492 C 1058.7415 348.23438 1059.737 382.42383 1060.7324 416.61328 z M 585.46094 423.23047 C 582.78971 455.73242 580.11849 488.23438 577.44727 520.73633 C 544.76237 520.49479 512.07747 520.25326 479.39258 520.01172 C 482.31641 486.97656 485.24023 453.94141 488.16406 420.90625 C 520.59635 421.68099 553.02865 422.45573 585.46094 423.23047 z M 911.89844 535.36914 C 950.71354 534.91602 989.52865 534.46289 1028.3438 534.00977 C 1027.3724 500.56315 1026.401 467.11654 1025.4297 433.66992 C 993.20182 433.27995 960.97396 432.88997 928.74609 432.5 C 923.13021 466.78971 917.51432 501.07943 911.89844 535.36914 z M 797.9043 624.42383 C 839.27474 626.53255 880.64518 628.64128 922.01562 630.75 C 910.93099 597.45768 899.84635 564.16536 888.76172 530.87305 C 853.41536 530.29753 818.06901 529.72201 782.72266 529.14648 C 787.7832 560.9056 792.84375 592.66471 797.9043 624.42383 z M 675.81641 737.05273 C 713.05794 736.3431 750.29948 735.63346 787.54102 734.92383 C 789.10156 704.74154 790.66211 674.55924 792.22266 644.37695 C 753.98372 644.1862 715.74479 643.99544 677.50586 643.80469 C 676.94271 674.88737 676.37956 705.97005 675.81641 737.05273 z M 931.3125 661.01758 C 924.29753 689.14193 917.28255 717.26628 910.26758 745.39062 C 944.70703 745.46029 979.14648 745.52995 1013.5859 745.59961 C 1013.8841 716.66081 1014.1823 687.72201 1014.4805 658.7832 C 986.75781 659.52799 959.03516 660.27279 931.3125 661.01758 z M 809.0625 774.33008 C 805.49674 807.20443 801.93099 840.07878 798.36523 872.95312 C 835.94661 872.24023 873.52799 871.52734 911.10938 870.81445 C 913.70182 838.3737 916.29427 805.93294 918.88672 773.49219 C 882.27865 773.77148 845.67057 774.05078 809.0625 774.33008 z M 995.62695 830.08984 C 984.26237 864.39648 972.89779 898.70313 961.5332 933.00977 C 997.51237 932.22917 1033.4915 931.44857 1069.4707 930.66797 C 1082.7546 895.63477 1096.0384 860.60156 1109.3223 825.56836 C 1071.4238 827.07552 1033.5254 828.58268 995.62695 830.08984 z M 600.36523 952.6875 C 567.83919 952.82096 535.31315 952.95443 502.78711 953.08789 C 502.94336 921.05469 503.09961 889.02148 503.25586 856.98828 C 538.00911 856.48438 572.76237 855.98047 607.51562 855.47656 C 605.13216 887.88021 602.7487 920.28385 600.36523 952.6875 z "
     style="fill:#00bb34;fill-opacity:1" />
</svg>
